<svg width="6371" height="1712" viewBox="0 0 6371 1712" fill="none" xmlns="http://www.w3.org/2000/svg">
<g clip-path="url(#clip0_601_9)">
<rect width="6371" height="1712" fill="url(#paint0_linear_601_9)"/>
<g filter="url(#filter0_d_601_9)">
<rect x="2421" y="585" width="1473" height="423" rx="40" fill="url(#paint1_linear_601_9)" shape-rendering="crispEdges"/>
<rect x="2421" y="585" width="1473" height="423" rx="40" fill="black" fill-opacity="0.2" shape-rendering="crispEdges"/>
<rect x="2421.5" y="585.5" width="1472" height="422" rx="39.5" stroke="black" shape-rendering="crispEdges"/>
</g>
<path d="M2807.72 845V749H2843.72C2851.1 749 2857.28 750.375 2862.28 753.125C2867.32 755.875 2871.11 759.656 2873.68 764.469C2876.27 769.25 2877.57 774.687 2877.57 780.781C2877.57 786.937 2876.27 792.406 2873.68 797.188C2871.08 801.969 2867.25 805.734 2862.19 808.484C2857.13 811.203 2850.89 812.562 2843.49 812.562H2819.63V798.266H2841.14C2845.46 798.266 2848.99 797.516 2851.74 796.016C2854.49 794.516 2856.52 792.453 2857.83 789.828C2859.18 787.203 2859.85 784.187 2859.85 780.781C2859.85 777.375 2859.18 774.375 2857.83 771.781C2856.52 769.187 2854.47 767.172 2851.69 765.734C2848.94 764.266 2845.39 763.531 2841.05 763.531H2825.11V845H2807.72ZM2918.34 846.406C2911.31 846.406 2905.21 844.859 2900.06 841.766C2894.9 838.672 2890.9 834.344 2888.06 828.781C2885.24 823.219 2883.84 816.719 2883.84 809.281C2883.84 801.844 2885.24 795.328 2888.06 789.734C2890.9 784.141 2894.9 779.797 2900.06 776.703C2905.21 773.609 2911.31 772.063 2918.34 772.063C2925.37 772.063 2931.46 773.609 2936.62 776.703C2941.77 779.797 2945.76 784.141 2948.57 789.734C2951.41 795.328 2952.84 801.844 2952.84 809.281C2952.84 816.719 2951.41 823.219 2948.57 828.781C2945.76 834.344 2941.77 838.672 2936.62 841.766C2931.46 844.859 2925.37 846.406 2918.34 846.406ZM2918.43 832.812C2922.24 832.812 2925.43 831.766 2927.99 829.672C2930.56 827.547 2932.46 824.703 2933.71 821.141C2934.99 817.578 2935.63 813.609 2935.63 809.234C2935.63 804.828 2934.99 800.844 2933.71 797.281C2932.46 793.687 2930.56 790.828 2927.99 788.703C2925.43 786.578 2922.24 785.516 2918.43 785.516C2914.52 785.516 2911.27 786.578 2908.68 788.703C2906.12 790.828 2904.2 793.687 2902.91 797.281C2901.66 800.844 2901.04 804.828 2901.04 809.234C2901.04 813.609 2901.66 817.578 2902.91 821.141C2904.2 824.703 2906.12 827.547 2908.68 829.672C2911.27 831.766 2914.52 832.812 2918.43 832.812ZM2976.08 845L2955.73 773H2973.03L2985.69 823.625H2986.34L2999.28 773H3016.39L3029.33 823.344H3030.03L3042.5 773H3059.84L3039.45 845H3021.78L3008.28 796.344H3007.29L2993.79 845H2976.08ZM3097.54 846.406C3090.32 846.406 3084.09 844.906 3078.84 841.906C3073.62 838.875 3069.6 834.594 3066.79 829.062C3063.98 823.5 3062.57 816.953 3062.57 809.422C3062.57 802.016 3063.98 795.516 3066.79 789.922C3069.64 784.297 3073.6 779.922 3078.7 776.797C3083.79 773.641 3089.78 772.063 3096.65 772.063C3101.09 772.063 3105.28 772.781 3109.21 774.219C3113.18 775.625 3116.68 777.812 3119.71 780.781C3122.78 783.75 3125.18 787.531 3126.93 792.125C3128.68 796.687 3129.56 802.125 3129.56 808.437V813.641H3070.54V802.203H3113.29C3113.26 798.953 3112.56 796.062 3111.18 793.531C3109.81 790.969 3107.89 788.953 3105.42 787.484C3102.98 786.016 3100.14 785.281 3096.89 785.281C3093.42 785.281 3090.37 786.125 3087.74 787.812C3085.12 789.469 3083.07 791.656 3081.6 794.375C3080.17 797.062 3079.43 800.016 3079.4 803.234V813.219C3079.4 817.406 3080.17 821 3081.7 824C3083.23 826.969 3085.37 829.25 3088.12 830.844C3090.87 832.406 3094.09 833.187 3097.78 833.187C3100.24 833.187 3102.48 832.844 3104.48 832.156C3106.48 831.437 3108.21 830.391 3109.68 829.016C3111.15 827.641 3112.26 825.937 3113.01 823.906L3128.85 825.687C3127.85 829.875 3125.95 833.531 3123.14 836.656C3120.35 839.75 3116.79 842.156 3112.45 843.875C3108.1 845.562 3103.14 846.406 3097.54 846.406ZM3139.95 845V773H3156.41V785H3157.16C3158.47 780.844 3160.72 777.641 3163.91 775.391C3167.12 773.109 3170.8 771.969 3174.92 771.969C3175.86 771.969 3176.91 772.016 3178.06 772.109C3179.25 772.172 3180.23 772.281 3181.02 772.437V788.047C3180.3 787.797 3179.16 787.578 3177.59 787.391C3176.06 787.172 3174.58 787.062 3173.14 787.062C3170.05 787.062 3167.27 787.734 3164.8 789.078C3162.36 790.391 3160.44 792.219 3159.03 794.562C3157.62 796.906 3156.92 799.609 3156.92 802.672V845H3139.95ZM3217.24 846.406C3210.02 846.406 3203.79 844.906 3198.54 841.906C3193.32 838.875 3189.3 834.594 3186.49 829.062C3183.68 823.5 3182.27 816.953 3182.27 809.422C3182.27 802.016 3183.68 795.516 3186.49 789.922C3189.33 784.297 3193.3 779.922 3198.4 776.797C3203.49 773.641 3209.47 772.063 3216.35 772.063C3220.79 772.063 3224.97 772.781 3228.91 774.219C3232.88 775.625 3236.38 777.812 3239.41 780.781C3242.47 783.75 3244.88 787.531 3246.63 792.125C3248.38 796.687 3249.25 802.125 3249.25 808.437V813.641H3190.24V802.203H3232.99C3232.96 798.953 3232.25 796.062 3230.88 793.531C3229.5 790.969 3227.58 788.953 3225.11 787.484C3222.68 786.016 3219.83 785.281 3216.58 785.281C3213.11 785.281 3210.07 786.125 3207.44 787.812C3204.82 789.469 3202.77 791.656 3201.3 794.375C3199.86 797.062 3199.13 800.016 3199.1 803.234V813.219C3199.1 817.406 3199.86 821 3201.4 824C3202.93 826.969 3205.07 829.25 3207.82 830.844C3210.57 832.406 3213.79 833.187 3217.47 833.187C3219.94 833.187 3222.18 832.844 3224.18 832.156C3226.18 831.437 3227.91 830.391 3229.38 829.016C3230.85 827.641 3231.96 825.937 3232.71 823.906L3248.55 825.687C3247.55 829.875 3245.65 833.531 3242.83 836.656C3240.05 839.75 3236.49 842.156 3232.15 843.875C3227.8 845.562 3222.83 846.406 3217.24 846.406ZM3286.37 846.266C3280.71 846.266 3275.65 844.813 3271.18 841.906C3266.71 839 3263.18 834.781 3260.59 829.25C3257.99 823.719 3256.7 817 3256.7 809.094C3256.7 801.094 3258.01 794.344 3260.63 788.844C3263.29 783.312 3266.87 779.141 3271.37 776.328C3275.87 773.484 3280.88 772.063 3286.42 772.063C3290.63 772.063 3294.1 772.781 3296.82 774.219C3299.54 775.625 3301.7 777.328 3303.29 779.328C3304.88 781.297 3306.12 783.156 3306.99 784.906H3307.7V749H3324.71V845H3308.02V833.656H3306.99C3306.12 835.406 3304.85 837.266 3303.2 839.234C3301.54 841.172 3299.35 842.828 3296.63 844.203C3293.92 845.578 3290.49 846.266 3286.37 846.266ZM3291.1 832.344C3294.7 832.344 3297.76 831.375 3300.29 829.437C3302.82 827.469 3304.74 824.734 3306.06 821.234C3307.37 817.734 3308.02 813.656 3308.02 809C3308.02 804.344 3307.37 800.297 3306.06 796.859C3304.77 793.422 3302.87 790.75 3300.34 788.844C3297.84 786.937 3294.76 785.984 3291.1 785.984C3287.32 785.984 3284.17 786.969 3281.63 788.937C3279.1 790.906 3277.2 793.625 3275.92 797.094C3274.63 800.562 3273.99 804.531 3273.99 809C3273.99 813.5 3274.63 817.516 3275.92 821.047C3277.23 824.547 3279.15 827.312 3281.68 829.344C3284.24 831.344 3287.38 832.344 3291.1 832.344ZM3368.37 845V749H3405.12C3412.05 749 3417.82 750.094 3422.41 752.281C3427.04 754.437 3430.49 757.391 3432.77 761.141C3435.09 764.891 3436.24 769.141 3436.24 773.891C3436.24 777.797 3435.49 781.141 3433.99 783.922C3432.49 786.672 3430.48 788.906 3427.94 790.625C3425.41 792.344 3422.59 793.578 3419.46 794.328V795.266C3422.87 795.453 3426.13 796.5 3429.26 798.406C3432.41 800.281 3434.99 802.937 3436.99 806.375C3438.99 809.812 3439.99 813.969 3439.99 818.844C3439.99 823.812 3438.79 828.281 3436.38 832.25C3433.98 836.187 3430.35 839.297 3425.51 841.578C3420.66 843.859 3414.57 845 3407.23 845H3368.37ZM3385.76 830.469H3404.46C3410.77 830.469 3415.32 829.266 3418.1 826.859C3420.91 824.422 3422.32 821.297 3422.32 817.484C3422.32 814.641 3421.62 812.078 3420.21 809.797C3418.8 807.484 3416.8 805.672 3414.21 804.359C3411.62 803.016 3408.52 802.344 3404.93 802.344H3385.76V830.469ZM3385.76 789.828H3402.96C3405.96 789.828 3408.66 789.281 3411.07 788.187C3413.48 787.062 3415.37 785.484 3416.74 783.453C3418.15 781.391 3418.85 778.953 3418.85 776.141C3418.85 772.422 3417.54 769.359 3414.91 766.953C3412.32 764.547 3408.46 763.344 3403.34 763.344H3385.76V789.828ZM3460.96 872C3458.64 872 3456.5 871.813 3454.54 871.438C3452.6 871.094 3451.05 870.688 3449.89 870.219L3453.83 857C3456.3 857.719 3458.5 858.063 3460.44 858.031C3462.38 858 3464.08 857.391 3465.55 856.203C3467.05 855.047 3468.32 853.109 3469.35 850.391L3470.8 846.5L3444.69 773H3462.69L3479.29 827.375H3480.04L3496.68 773H3514.72L3485.89 853.719C3484.55 857.531 3482.77 860.797 3480.55 863.516C3478.33 866.266 3475.61 868.359 3472.39 869.797C3469.21 871.266 3465.39 872 3460.96 872Z" fill="url(#paint2_linear_601_9)"/>
<rect x="2620" y="1008" width="39" height="57" rx="6" fill="#A8A8A8"/>
<rect x="2795" y="1008" width="39" height="57" rx="6" fill="#B1B1B1"/>
<rect x="2970" y="1008" width="39" height="57" rx="6" fill="#B1B1B1"/>
<rect x="3138" y="1008" width="39" height="57" rx="6" fill="#B1B1B1"/>
<g filter="url(#filter1_i_601_9)">
<rect x="3281" y="1008" width="39" height="57" rx="6" fill="#B1B1B1"/>
</g>
<rect x="3467" y="1009" width="39" height="57" rx="6" fill="#B1B1B1"/>
<rect x="2970" y="528" width="39" height="57" rx="6" fill="#B1B1B1"/>
<rect x="3281" y="528" width="39" height="57" rx="6" fill="#B1B1B1"/>
<rect x="3138" y="528" width="39" height="57" rx="6" fill="#B1B1B1"/>
<rect x="2365" y="729" width="57" height="39" rx="6" fill="#B1B1B1"/>
<rect x="2365" y="851" width="57" height="39" rx="6" fill="#B1B1B1"/>
<rect x="3467" y="528" width="39" height="57" rx="6" fill="#B1B1B1"/>
<rect x="3653" y="528" width="39" height="57" rx="6" fill="#B1B1B1"/>
<rect x="3894" y="729" width="57" height="39" rx="6" fill="#B1B1B1"/>
<rect x="3894" y="851" width="57" height="39" rx="6" fill="#B1B1B1"/>
<rect x="2795" y="528" width="39" height="57" rx="6" fill="#B1B1B1"/>
<rect x="3653" y="1008" width="39" height="57" rx="6" fill="#B1B1B1"/>
<rect x="2620" y="528" width="39" height="57" rx="6" fill="#B1B1B1"/>
<g filter="url(#filter2_b_601_9)">
<path d="M2364 750C453.241 750 408.604 750 354.998 750C351.684 750 349 752.686 349 756V2198" stroke="#070707" stroke-width="4" stroke-linejoin="round" style="mix-blend-mode:darken"/>
</g>
<g style="mix-blend-mode:darken" filter="url(#filter3_b_601_9)">
<path d="M3951 872C5861.76 872 5906.4 872 5960 872C5963.32 872 5966 874.686 5966 878V2284" stroke="#070707" stroke-width="5" stroke-linejoin="round" style="mix-blend-mode:darken"/>
</g>
<g filter="url(#filter4_b_601_9)">
<path d="M2643 1066V1515.74C2643 1519.05 2640.31 1521.74 2637 1521.74H1104C1100.69 1521.74 1098 1524.42 1098 1527.74V2006" stroke="url(#paint3_linear_601_9)" stroke-width="4" stroke-linejoin="round" style="mix-blend-mode:darken"/>
</g>
<g style="mix-blend-mode:darken" filter="url(#filter5_d_601_9)">
<path d="M2365 872H893C889.686 872 887 874.686 887 878V1065" stroke="#070707" stroke-width="4" style="mix-blend-mode:darken" shape-rendering="crispEdges"/>
</g>
<circle cx="887" cy="1056" r="19" fill="black"/>
<circle cx="2990" cy="1430" r="19" fill="black"/>
<circle cx="3158" cy="1550" r="19" fill="black"/>
<circle cx="4658" cy="1224" r="19" fill="black"/>
<circle cx="5242" cy="750" r="19" fill="black"/>
<circle cx="4193" cy="288" r="19" fill="black"/>
<circle cx="3487" cy="215" r="19" fill="black"/>
<circle cx="2990" cy="67" r="19" fill="black"/>
<circle cx="2131" cy="389" r="19" fill="black"/>
<path style="mix-blend-mode:darken" d="M3951 749H5241.5" stroke="#070707" stroke-width="4"/>
<g filter="url(#filter6_f_601_9)">
<path d="M2816 1065.5L2814.81 2106" stroke="#070707" stroke-width="4" style="mix-blend-mode:darken"/>
</g>
<path d="M2990 1065V1410.5" stroke="url(#paint4_linear_601_9)" stroke-width="4" style="mix-blend-mode:darken"/>
<path d="M3158 1065V1542.08" stroke="url(#paint5_linear_601_9)" stroke-width="4" style="mix-blend-mode:darken"/>
<path d="M3674.5 1065.5V1217.5C3674.5 1220.81 3677.19 1223.5 3680.5 1223.5H4658" stroke="#070707" stroke-width="4" style="mix-blend-mode:darken"/>
<path d="M3487 1065V1467.73C3487 1471.05 3489.69 1473.73 3493 1473.73H4983C4986.31 1473.73 4989 1476.42 4989 1479.73V1809" stroke="url(#paint6_linear_601_9)" stroke-opacity="0.5" stroke-width="4" stroke-linejoin="round" style="mix-blend-mode:darken"/>
<path d="M3487 1065V1467.73C3487 1471.05 3489.69 1473.73 3493 1473.73H4983C4986.31 1473.73 4989 1476.42 4989 1479.73V1809" stroke="black" stroke-width="4" stroke-linejoin="round"/>
<path d="M3301 1065V1914.21" stroke="#070707" stroke-width="4" style="mix-blend-mode:darken"/>
<path d="M3674.5 528V294C3674.5 290.686 3677.19 288 3680.5 288H4192.5" stroke="#070707" stroke-width="4" stroke-linejoin="round" style="mix-blend-mode:darken"/>
<path d="M3487 526.5V234" stroke="#070707" stroke-width="4" style="mix-blend-mode:darken"/>
<path style="mix-blend-mode:darken" d="M2639.5 528V395C2639.5 391.686 2636.81 389 2633.5 389H2131" stroke="#070707" stroke-width="4" stroke-linejoin="round"/>
<path style="mix-blend-mode:darken" d="M2990 527.5V67" stroke="#070707" stroke-width="4"/>
</g>
<defs>
<filter id="filter0_d_601_9" x="2417" y="585" width="1481" height="431" filterUnits="userSpaceOnUse" color-interpolation-filters="sRGB">
<feFlood flood-opacity="0" result="BackgroundImageFix"/>
<feColorMatrix in="SourceAlpha" type="matrix" values="0 0 0 0 0 0 0 0 0 0 0 0 0 0 0 0 0 0 127 0" result="hardAlpha"/>
<feOffset dy="4"/>
<feGaussianBlur stdDeviation="2"/>
<feComposite in2="hardAlpha" operator="out"/>
<feColorMatrix type="matrix" values="0 0 0 0 0 0 0 0 0 0 0 0 0 0 0 0 0 0 0.25 0"/>
<feBlend mode="normal" in2="BackgroundImageFix" result="effect1_dropShadow_601_9"/>
<feBlend mode="normal" in="SourceGraphic" in2="effect1_dropShadow_601_9" result="shape"/>
</filter>
<filter id="filter1_i_601_9" x="3281" y="1008" width="39" height="61" filterUnits="userSpaceOnUse" color-interpolation-filters="sRGB">
<feFlood flood-opacity="0" result="BackgroundImageFix"/>
<feBlend mode="normal" in="SourceGraphic" in2="BackgroundImageFix" result="shape"/>
<feColorMatrix in="SourceAlpha" type="matrix" values="0 0 0 0 0 0 0 0 0 0 0 0 0 0 0 0 0 0 127 0" result="hardAlpha"/>
<feOffset dy="4"/>
<feGaussianBlur stdDeviation="2"/>
<feComposite in2="hardAlpha" operator="arithmetic" k2="-1" k3="1"/>
<feColorMatrix type="matrix" values="0 0 0 0 0 0 0 0 0 0 0 0 0 0 0 0 0 0 0.25 0"/>
<feBlend mode="normal" in2="shape" result="effect1_innerShadow_601_9"/>
</filter>
<filter id="filter2_b_601_9" x="343" y="744" width="2025" height="1458" filterUnits="userSpaceOnUse" color-interpolation-filters="sRGB">
<feFlood flood-opacity="0" result="BackgroundImageFix"/>
<feGaussianBlur in="BackgroundImageFix" stdDeviation="2"/>
<feComposite in2="SourceAlpha" operator="in" result="effect1_backgroundBlur_601_9"/>
<feBlend mode="normal" in="SourceGraphic" in2="effect1_backgroundBlur_601_9" result="shape"/>
</filter>
<filter id="filter3_b_601_9" x="3947" y="865.5" width="2025.5" height="1422.5" filterUnits="userSpaceOnUse" color-interpolation-filters="sRGB">
<feFlood flood-opacity="0" result="BackgroundImageFix"/>
<feGaussianBlur in="BackgroundImageFix" stdDeviation="2"/>
<feComposite in2="SourceAlpha" operator="in" result="effect1_backgroundBlur_601_9"/>
<feBlend mode="normal" in="SourceGraphic" in2="effect1_backgroundBlur_601_9" result="shape"/>
</filter>
<filter id="filter4_b_601_9" x="1092" y="1062" width="1557" height="948" filterUnits="userSpaceOnUse" color-interpolation-filters="sRGB">
<feFlood flood-opacity="0" result="BackgroundImageFix"/>
<feGaussianBlur in="BackgroundImageFix" stdDeviation="2"/>
<feComposite in2="SourceAlpha" operator="in" result="effect1_backgroundBlur_601_9"/>
<feBlend mode="normal" in="SourceGraphic" in2="effect1_backgroundBlur_601_9" result="shape"/>
</filter>
<filter id="filter5_d_601_9" x="881" y="870" width="1488" height="203" filterUnits="userSpaceOnUse" color-interpolation-filters="sRGB">
<feFlood flood-opacity="0" result="BackgroundImageFix"/>
<feColorMatrix in="SourceAlpha" type="matrix" values="0 0 0 0 0 0 0 0 0 0 0 0 0 0 0 0 0 0 127 0" result="hardAlpha"/>
<feOffset dy="4"/>
<feGaussianBlur stdDeviation="2"/>
<feComposite in2="hardAlpha" operator="out"/>
<feColorMatrix type="matrix" values="0 0 0 0 0 0 0 0 0 0 0 0 0 0 0 0 0 0 0.25 0"/>
<feBlend mode="normal" in2="BackgroundImageFix" result="effect1_dropShadow_601_9"/>
<feBlend mode="normal" in="SourceGraphic" in2="effect1_dropShadow_601_9" result="shape"/>
</filter>
<filter id="filter6_f_601_9" x="2808.81" y="1061.5" width="13.1926" height="1048.5" filterUnits="userSpaceOnUse" color-interpolation-filters="sRGB">
<feFlood flood-opacity="0" result="BackgroundImageFix"/>
<feBlend mode="normal" in="SourceGraphic" in2="BackgroundImageFix" result="shape"/>
<feGaussianBlur stdDeviation="2" result="effect1_foregroundBlur_601_9"/>
</filter>
<linearGradient id="paint0_linear_601_9" x1="3185.5" y1="0" x2="3185.5" y2="1712" gradientUnits="userSpaceOnUse">
<stop offset="0.458333" stop-color="#0B0B0B"/>
<stop offset="0.828125" stop-color="#0B0B0B" stop-opacity="0.848247"/>
<stop offset="0.963542" stop-color="#0B0B0B" stop-opacity="0.68"/>
</linearGradient>
<linearGradient id="paint1_linear_601_9" x1="3157.5" y1="585" x2="3157.5" y2="1008" gradientUnits="userSpaceOnUse">
<stop stop-color="#474747"/>
<stop offset="1" stop-color="#474747" stop-opacity="0"/>
</linearGradient>
<linearGradient id="paint2_linear_601_9" x1="3158" y1="749" x2="3158" y2="845" gradientUnits="userSpaceOnUse">
<stop stop-color="white"/>
<stop offset="1" stop-color="#A6A5A5" stop-opacity="0.93"/>
</linearGradient>
<linearGradient id="paint3_linear_601_9" x1="1870.5" y1="1066" x2="1870.5" y2="2006" gradientUnits="userSpaceOnUse">
<stop/>
<stop offset="0.0001" stop-opacity="0.93"/>
<stop offset="0.479167" stop-opacity="0.67"/>
<stop offset="1"/>
</linearGradient>
<linearGradient id="paint4_linear_601_9" x1="2990.5" y1="1065" x2="2990.5" y2="1410.5" gradientUnits="userSpaceOnUse">
<stop/>
<stop offset="0.0001" stop-opacity="0.93"/>
<stop offset="0.479167" stop-opacity="0.67"/>
<stop offset="1"/>
</linearGradient>
<linearGradient id="paint5_linear_601_9" x1="3158.5" y1="1065" x2="3158.5" y2="1542.08" gradientUnits="userSpaceOnUse">
<stop/>
<stop offset="0.0001" stop-opacity="0.93"/>
<stop offset="0.479167" stop-opacity="0.67"/>
<stop offset="1"/>
</linearGradient>
<linearGradient id="paint6_linear_601_9" x1="4238" y1="1065" x2="4238" y2="1809" gradientUnits="userSpaceOnUse">
<stop/>
<stop offset="0.0001" stop-opacity="0.93"/>
<stop offset="0.0002" stop-opacity="0.67"/>
<stop offset="1"/>
</linearGradient>
<clipPath id="clip0_601_9">
<rect width="6371" height="1712" fill="white"/>
</clipPath>
</defs>
</svg>
